<svg id="Lager_2" data-name="Lager 2" xmlns="http://www.w3.org/2000/svg" viewBox="0 -0.03 838.35 157.63">
  <g id="Lager_1-2" data-name="Lager 1">
    <g>
      <path d="M157.44,78.87c0,26.12-2.14,51.81-14.53,64.18-12.37,12.39-38.06,14.53-64.18,14.53s-51.81-2.14-64.2-14.53C2.14,130.68.02,104.99,0,78.87,0,52.73,2.14,27.06,14.53,14.67,26.9,2.28,52.61-.74,78.71.14c14.95.51,29.9.99,42.19,3.72,7.41,1.64,10,10.87,4.54,16.13h0c-2.02,1.95-4.8,2.9-7.59,2.59-3.32-.36-6.93-.47-10.54-.6-9.41-.32-18.69.77-23.15,5.23-4.48,4.47-5.25,13.75-5.25,23.17s.78,18.69,5.25,23.17c4.46,4.47,13.73,5.23,23.17,5.23s18.69-.77,23.15-5.25c4.46-4.47,5.25-13.73,5.25-23.15,0-3.55-.09-7.09-.44-10.36-.32-2.95.72-5.87,2.86-7.93h0c5.36-5.15,14.23-2.45,15.91,4.78,2.84,12.25,3.39,27.11,3.39,41.98Z"/>
      <g>
        <path d="M219.08,134.82V20.54h16.67v51.49l54.7-51.49h23.47l-51.68,45.93,52.97,68.35h-22.22l-42.61-56.13-14.63,15v41.13h-16.67Z"/>
        <path d="M348.55,134.82l-34.82-91.87h17.6l27.04,75.94,27.04-75.94h17.23l-34.64,91.87h-19.45Z"/>
        <path d="M442.84,137.04c-7.41,0-13.65-1.27-18.71-3.8-5.06-2.53-8.86-5.93-11.39-10.19-2.53-4.26-3.8-8.8-3.8-13.61,0-10,3.61-17.63,10.84-22.88,7.22-5.25,16.7-7.87,28.43-7.87,5.19,0,9.88.37,14.08,1.11,4.2.74,7.65,1.61,10.37,2.59v-4.08c0-7.9-2.07-13.86-6.21-17.87-4.14-4.01-9.66-6.02-16.58-6.02-5.68,0-10.59,1.17-14.73,3.52-4.14,2.35-6.7,6.3-7.69,11.86h-16.67c.74-6.54,2.99-11.98,6.76-16.3,3.77-4.32,8.49-7.53,14.17-9.63,5.68-2.1,11.73-3.15,18.15-3.15,13.09,0,22.94,3.43,29.54,10.28,6.6,6.85,9.91,15.96,9.91,27.32v27.6c0,4.45.28,7.72.83,9.82.56,2.1,1.51,3.4,2.87,3.89,1.36.5,3.21.74,5.56.74h1.3v14.45h-3.52c-6.05,0-10.99-.99-14.82-2.96-3.83-1.97-6.42-5.93-7.78-11.85-2.84,4.81-6.76,8.86-11.76,12.13-5,3.27-11.39,4.91-19.17,4.91ZM445.43,123.52c5.43,0,10.09-1.36,13.98-4.08,3.89-2.71,6.95-6.3,9.17-10.74s3.46-9.14,3.7-14.08c-2.84-.86-6.3-1.64-10.37-2.32-4.07-.68-8.15-1.02-12.23-1.02-8.4,0-14.48,1.64-18.25,4.91-3.77,3.27-5.65,7.38-5.65,12.32,0,4.32,1.7,7.9,5.09,10.74,3.39,2.84,8.24,4.26,14.54,4.26Z"/>
        <path d="M551.44,137.04c-9.14,0-17.1-2.1-23.89-6.3-6.79-4.2-12.1-9.94-15.93-17.23-3.83-7.28-5.74-15.56-5.74-24.82s1.91-17.5,5.74-24.73c3.83-7.22,9.17-12.9,16.02-17.04,6.85-4.14,14.79-6.21,23.8-6.21,7.53,0,14.17,1.51,19.91,4.54,5.74,3.03,10.16,7.26,13.24,12.69V20.54h16.67v114.28h-16.67v-15c-2.96,4.45-7.13,8.43-12.5,11.95-5.37,3.52-12.26,5.28-20.65,5.28ZM553.66,122.6c6.05,0,11.36-1.42,15.93-4.26,4.57-2.84,8.15-6.79,10.74-11.85,2.59-5.06,3.89-10.93,3.89-17.6s-1.3-12.53-3.89-17.6c-2.59-5.06-6.18-9.01-10.74-11.85-4.57-2.84-9.88-4.26-15.93-4.26s-11.24,1.42-15.93,4.26c-4.7,2.84-8.34,6.76-10.93,11.76-2.59,5-3.89,10.9-3.89,17.69s1.3,12.53,3.89,17.6c2.59,5.06,6.23,9.02,10.93,11.85,4.69,2.84,10,4.26,15.93,4.26Z"/>
        <path d="M622.75,134.82V42.95h16.67v14.45c2.1-4.82,4.94-8.55,8.52-11.21,3.58-2.65,7.96-3.98,13.15-3.98h13.71v15.56h-15.37c-3.95,0-7.44,1.11-10.47,3.33-3.03,2.22-5.37,5.77-7.04,10.65-1.67,4.88-2.5,11.33-2.5,19.36v43.71h-16.67Z"/>
        <path d="M718.51,137.04c-7.41,0-13.65-1.27-18.71-3.8-5.06-2.53-8.86-5.93-11.39-10.19-2.53-4.26-3.8-8.8-3.8-13.61,0-10,3.61-17.63,10.84-22.88,7.22-5.25,16.7-7.87,28.43-7.87,5.19,0,9.88.37,14.08,1.11,4.2.74,7.65,1.61,10.37,2.59v-4.08c0-7.9-2.07-13.86-6.21-17.87-4.14-4.01-9.66-6.02-16.58-6.02-5.68,0-10.59,1.17-14.73,3.52-4.14,2.35-6.7,6.3-7.69,11.86h-16.67c.74-6.54,2.99-11.98,6.76-16.3,3.77-4.32,8.49-7.53,14.17-9.63,5.68-2.1,11.73-3.15,18.15-3.15,13.09,0,22.94,3.43,29.54,10.28,6.6,6.85,9.91,15.96,9.91,27.32v27.6c0,4.45.28,7.72.83,9.82.56,2.1,1.51,3.4,2.87,3.89,1.36.5,3.21.74,5.56.74h1.3v14.45h-3.52c-6.05,0-10.99-.99-14.82-2.96-3.83-1.97-6.42-5.93-7.78-11.85-2.84,4.81-6.76,8.86-11.76,12.13-5,3.27-11.39,4.91-19.17,4.91ZM721.11,123.52c5.43,0,10.09-1.36,13.98-4.08,3.89-2.71,6.95-6.3,9.17-10.74,2.22-4.45,3.46-9.14,3.7-14.08-2.84-.86-6.3-1.64-10.37-2.32-4.07-.68-8.15-1.02-12.23-1.02-8.4,0-14.48,1.64-18.25,4.91-3.77,3.27-5.65,7.38-5.65,12.32,0,4.32,1.7,7.9,5.09,10.74,3.39,2.84,8.24,4.26,14.54,4.26Z"/>
        <path d="M819.64,134.82c-5.19,0-9.57-.65-13.15-1.95-3.58-1.3-6.27-3.73-8.06-7.32-1.79-3.58-2.68-8.64-2.68-15.19v-53.35h-15.93v-14.08h15.93v-22.41h16.67v22.41h25.93v14.08h-25.93v50.75c0,3.95.31,6.85.93,8.7.62,1.85,1.91,3,3.89,3.43,1.97.43,4.81.65,8.52.65h11.3v14.26h-17.41Z"/>
      </g>
    </g>
  </g>
</svg>