<svg width="1529" height="253" viewBox="0 0 1529 253" fill="none" xmlns="http://www.w3.org/2000/svg">
<path d="M221.23 4.78365C216.884 4.82712 212.731 6.58419 209.673 9.67297C206.615 12.7617 204.9 16.9326 204.9 21.279V30.6814C204.9 35.0278 206.615 39.1986 209.673 42.2874C212.731 45.3762 216.884 47.1333 221.23 47.1767H230.605C234.947 47.1261 239.093 45.3658 242.145 42.2778C245.197 39.1898 246.908 35.0231 246.908 30.6814V21.1965C246.908 16.8548 245.197 12.6881 242.145 9.60007C239.093 6.51207 234.947 4.75183 230.605 4.70118L221.23 4.78365ZM230.605 51.7954H221.23C215.625 51.7736 210.258 49.5299 206.305 45.5563C202.352 41.5828 200.136 36.2038 200.144 30.5989V21.1965C200.136 15.5917 202.352 10.2126 206.305 6.23909C210.258 2.26554 215.625 0.0218324 221.23 0H230.605C236.205 0.0290868 241.566 2.276 245.513 6.24876C249.46 10.2215 251.672 15.5964 251.664 21.1965V30.5989C251.672 36.199 249.46 41.5739 245.513 45.5467C241.566 49.5194 236.205 51.7663 230.605 51.7954V51.7954ZM220.955 71.6723C216.609 71.7158 212.456 73.4729 209.398 76.5617C206.34 79.6504 204.625 83.8213 204.625 88.1677V97.5701C204.625 101.916 206.34 106.087 209.398 109.176C212.456 112.265 216.609 114.022 220.955 114.065H230.33C234.672 114.015 238.818 112.255 241.87 109.167C244.922 106.079 246.633 101.912 246.633 97.5701V88.1127C246.633 83.771 244.922 79.6043 241.87 76.5162C238.818 73.4282 234.672 71.668 230.33 71.6174L220.955 71.6723ZM230.33 118.712H220.955C215.351 118.69 209.983 116.446 206.03 112.473C202.077 108.499 199.862 103.12 199.869 97.5151V88.1127C199.854 82.5031 202.067 77.117 206.02 73.1375C209.974 69.158 215.346 66.9105 220.955 66.8887H230.33C235.938 66.9178 241.305 69.1676 245.257 73.1455C249.209 77.1234 251.424 82.5053 251.417 88.1127V97.5151C251.417 103.118 249.199 108.493 245.247 112.465C241.296 116.437 235.933 118.683 230.33 118.712V118.712ZM252.764 164.954C252.778 167.76 252.239 170.541 251.177 173.139C250.115 175.736 248.55 178.099 246.574 180.091C244.597 182.083 242.247 183.665 239.658 184.747C237.068 185.83 234.291 186.39 231.485 186.398H220.873C218.069 186.387 215.295 185.823 212.709 184.739C210.123 183.656 207.776 182.073 205.802 180.081C203.828 178.089 202.266 175.728 201.206 173.132C200.145 170.537 199.607 167.758 199.621 164.954V154.314C199.614 151.516 200.158 148.744 201.222 146.156C202.286 143.568 203.85 141.216 205.823 139.232C207.796 137.248 210.141 135.673 212.723 134.595C215.306 133.518 218.075 132.96 220.873 132.953H231.485C234.285 132.956 237.057 133.512 239.643 134.588C242.228 135.663 244.576 137.238 246.553 139.222C248.529 141.206 250.095 143.56 251.161 146.15C252.226 148.739 252.771 151.514 252.764 154.314V164.954ZM220.68 205.477C216.339 205.528 212.193 207.288 209.141 210.376C206.089 213.464 204.377 217.631 204.378 221.973V231.375C204.377 235.717 206.089 239.883 209.141 242.971C212.193 246.059 216.339 247.82 220.68 247.87H230.055C234.402 247.827 238.555 246.07 241.613 242.981C244.671 239.892 246.386 235.721 246.386 231.375V221.89C246.386 217.544 244.671 213.373 241.613 210.284C238.555 207.195 234.402 205.438 230.055 205.395L220.68 205.477ZM230.055 252.489H220.68C215.078 252.467 209.714 250.223 205.765 246.248C201.816 242.274 199.607 236.895 199.621 231.292V221.89C199.614 216.29 201.826 210.915 205.773 206.942C209.72 202.97 215.08 200.723 220.68 200.694H230.055C235.66 200.715 241.028 202.959 244.981 206.933C248.933 210.906 251.149 216.285 251.142 221.89V231.292C251.149 234.069 250.609 236.819 249.554 239.387C248.498 241.955 246.947 244.29 244.989 246.258C243.031 248.226 240.704 249.79 238.142 250.859C235.579 251.928 232.832 252.482 230.055 252.489ZM184.583 231.787C184.59 234.499 184.063 237.185 183.033 239.693C182.002 242.2 180.487 244.48 178.575 246.403C176.663 248.325 174.391 249.852 171.888 250.896C169.386 251.941 166.703 252.482 163.991 252.489H153.682C148.203 252.474 142.955 250.286 139.089 246.405C135.223 242.523 133.055 237.266 133.063 231.787V221.423C133.055 218.708 133.583 216.018 134.615 213.507C135.648 210.996 137.164 208.713 139.079 206.788C140.994 204.863 143.269 203.334 145.774 202.288C148.28 201.243 150.967 200.701 153.682 200.694H163.991C169.47 200.715 174.716 202.911 178.576 206.797C182.437 210.684 184.598 215.944 184.583 221.423V231.787ZM87.6179 205.477C83.2717 205.521 79.1183 207.278 76.0604 210.367C73.0025 213.455 71.2873 217.626 71.2875 221.973V231.375C71.2873 235.721 73.0025 239.892 76.0604 242.981C79.1183 246.07 83.2717 247.827 87.6179 247.87H96.9653C101.311 247.827 105.465 246.07 108.523 242.981C111.581 239.892 113.296 235.721 113.296 231.375V221.89C113.296 217.544 111.581 213.373 108.523 210.284C105.465 207.195 101.311 205.438 96.9653 205.395L87.6179 205.477ZM96.9653 252.489H87.6179C84.8416 252.482 82.0938 251.928 79.5316 250.859C76.9693 249.79 74.6427 248.226 72.6847 246.258C70.7266 244.29 69.1754 241.955 68.1196 239.387C67.0638 236.819 66.5241 234.069 66.5314 231.292V221.89C66.524 216.285 68.7398 210.906 72.6927 206.933C76.6457 202.959 82.0131 200.715 87.6179 200.694H96.9653C102.57 200.715 107.938 202.959 111.89 206.933C115.843 210.906 118.059 216.285 118.052 221.89V231.292C118.059 234.069 117.519 236.819 116.464 239.387C115.408 241.955 113.857 244.29 111.899 246.258C109.94 248.226 107.614 249.79 105.052 250.859C102.489 251.928 99.7416 252.482 96.9653 252.489V252.489ZM184.583 165.256C184.598 170.734 182.437 175.995 178.576 179.881C174.716 183.768 169.47 185.963 163.991 185.985H153.682C150.967 185.978 148.28 185.436 145.774 184.39C143.269 183.345 140.994 181.816 139.079 179.891C137.164 177.966 135.648 175.683 134.615 173.172C133.583 170.661 133.055 167.971 133.063 165.256V154.891C133.055 152.176 133.583 149.487 134.615 146.976C135.648 144.464 137.164 142.181 139.079 140.256C140.994 138.332 143.269 136.803 145.774 135.757C148.28 134.711 150.967 134.169 153.682 134.162H163.991C169.47 134.184 174.716 136.379 178.576 140.266C182.437 144.153 184.598 149.413 184.583 154.891V165.256ZM118.052 165.668C118.066 171.147 115.906 176.407 112.045 180.294C108.184 184.18 102.939 186.376 97.4602 186.398H87.1506C84.4356 186.39 81.7486 185.848 79.2431 184.803C76.7375 183.757 74.4625 182.228 72.5478 180.303C70.6331 178.378 69.1163 176.095 68.084 173.584C67.0517 171.073 66.5241 168.383 66.5314 165.668V155.304C66.5531 149.844 68.7333 144.615 72.5963 140.758C76.4592 136.9 81.6912 134.727 87.1506 134.712H97.4602C102.939 134.734 108.184 136.929 112.045 140.816C115.906 144.703 118.066 149.963 118.052 155.441V165.668ZM184.583 97.9824C184.598 103.461 182.437 108.721 178.576 112.608C174.716 116.494 169.47 118.69 163.991 118.712H153.682C150.967 118.704 148.28 118.162 145.774 117.117C143.269 116.071 140.994 114.542 139.079 112.617C137.164 110.693 135.648 108.409 134.615 105.898C133.583 103.387 133.055 100.697 133.063 97.9824V87.6179C133.055 84.9029 133.583 82.2131 134.615 79.702C135.648 77.1909 137.164 74.9078 139.079 72.9829C140.994 71.058 143.269 69.5291 145.774 68.4834C148.28 67.4378 150.967 66.8959 153.682 66.8887H163.991C169.47 66.9105 174.716 69.1059 178.576 72.9926C182.437 76.8792 184.598 82.1395 184.583 87.6179V97.9824ZM87.6179 71.6723C83.2717 71.7158 79.1183 73.4729 76.0604 76.5617C73.0025 79.6504 71.2873 83.8213 71.2875 88.1677V97.5701C71.2873 101.916 73.0025 106.087 76.0604 109.176C79.1183 112.265 83.2717 114.022 87.6179 114.065H96.9653C101.311 114.022 105.465 112.265 108.523 109.176C111.581 106.087 113.296 101.916 113.296 97.5701V88.1127C113.296 83.7663 111.581 79.5954 108.523 76.5067C105.465 73.4179 101.311 71.6608 96.9653 71.6174L87.6179 71.6723ZM96.9653 118.712H87.6179C82.0131 118.69 76.6457 116.446 72.6927 112.473C68.7398 108.499 66.524 103.12 66.5314 97.5151V88.1127C66.5167 82.5031 68.7293 77.117 72.683 73.1375C76.6367 69.158 82.0083 66.9105 87.6179 66.8887H96.9653C102.575 66.9105 107.946 69.158 111.9 73.1375C115.854 77.117 118.066 82.5031 118.052 88.1127V97.5151C118.059 103.12 115.843 108.499 111.89 112.473C107.938 116.446 102.57 118.69 96.9653 118.712V118.712ZM21.0866 205.477C16.7404 205.521 12.587 207.278 9.52915 210.367C6.47125 213.455 4.75602 217.626 4.75623 221.973V231.375C4.75602 235.721 6.47125 239.892 9.52915 242.981C12.587 246.07 16.7404 247.827 21.0866 247.87H30.434C34.7802 247.827 38.9336 246.07 41.9915 242.981C45.0494 239.892 46.7646 235.721 46.7644 231.375V221.89C46.7646 217.544 45.0494 213.373 41.9915 210.284C38.9336 207.195 34.7802 205.438 30.434 205.395L21.0866 205.477ZM30.434 252.489H21.0866C18.3103 252.482 15.5625 251.928 13.0003 250.859C10.438 249.79 8.11146 248.226 6.15339 246.258C4.19532 244.29 2.6441 241.955 1.58832 239.387C0.532528 236.819 -0.00715837 234.069 7.16934e-05 231.292V221.89C-0.0072499 216.285 2.20851 210.906 6.16144 206.933C10.1144 202.959 15.4818 200.715 21.0866 200.694H30.434C36.0389 200.715 41.4063 202.959 45.3592 206.933C49.3121 210.906 51.5279 216.285 51.5206 221.89V231.292C51.5278 234.069 50.9881 236.819 49.9323 239.387C48.8765 241.955 47.3253 244.29 45.3673 246.258C43.4092 248.226 41.0826 249.79 38.5204 250.859C35.9581 251.928 33.2104 252.482 30.434 252.489" fill="#FF7000"/>
<path d="M1170.34 10.778H1165.42C1159.97 10.778 1155.55 15.1968 1155.55 20.6477V25.5688C1155.55 31.0197 1159.97 35.4385 1165.42 35.4385H1170.34C1175.79 35.4385 1180.21 31.0197 1180.21 25.5688V20.6477C1180.21 15.1968 1175.79 10.778 1170.34 10.778Z" fill="black"/>
<path d="M544.35 63.2426C532.225 63.0287 520.251 65.9653 509.6 71.7652C499.378 77.5078 490.954 85.9793 485.27 96.2333H484.61C476.289 74.2395 457.502 63.2426 428.251 63.2426C417.369 63.1197 406.631 65.7286 397.019 70.8305C387.783 75.6727 380.18 83.132 375.163 92.2744H374.146L370.544 66.8166H356.551V252.389H373.459V150.063C373.459 125.155 377.894 107.029 386.765 95.6835C395.636 84.3383 409.803 78.6841 429.268 78.7207C457.97 78.7207 472.312 94.3638 472.293 125.65V252.499H489.558V143.767C489.558 121.334 494.14 104.884 503.305 94.4188C512.469 83.9534 526.526 78.7207 545.478 78.7207C560.049 78.7207 570.862 82.8721 577.919 91.1747C584.975 99.4774 588.448 112.683 588.338 130.791V252.499H605.081V131.121C605.081 107.551 600.013 90.3683 589.878 79.573C579.742 68.7777 564.566 63.3342 544.35 63.2426Z" fill="black"/>
<path d="M919.034 63.2317C888.188 63.2317 866.735 72.909 854.675 92.2635H853.658L850.413 66.8057H836.062V252.378H852.97V150.052C852.97 124.906 858.121 106.724 868.421 95.5076C878.721 84.2908 894.969 78.6915 917.165 78.7098C933.66 78.7098 945.839 82.9436 953.702 91.4113C961.565 99.8789 965.487 113.451 965.469 132.127V252.488H982.211V131.11C982.211 85.9495 961.134 63.36 918.979 63.3417" fill="black"/>
<path d="M1067.75 226.811C1062.75 219.957 1060.25 209.427 1060.25 195.223V77.7482H1114.71V63.0673H1060.25V21.9939H1051.53L1043.01 60.1807L1015.52 67.851V77.7482H1043.01V197.614C1043.01 216.401 1046.9 230.147 1054.69 238.853C1062.48 247.559 1074.58 251.948 1090.98 252.022C1100.59 252.18 1110.16 250.797 1119.33 247.925V234.179C1110.12 236.127 1100.72 237.049 1091.31 236.928C1080.63 236.928 1072.77 233.519 1067.75 226.701" fill="black"/>
<path d="M1176.34 65.9821H1159.43V251.555H1176.34V65.9821Z" fill="black"/>
<path d="M1305.31 75.7431C1319.58 76.1881 1333.7 78.8978 1347.12 83.7709L1351.74 68.7326C1337.01 63.1852 1321.38 60.3896 1305.64 60.4849C1278.55 60.4849 1257.21 69.0442 1241.61 86.1627C1226.01 103.281 1218.22 127.218 1218.24 157.972C1218.24 187.921 1225.75 211.252 1240.76 227.968C1255.77 244.683 1276.56 253.013 1303.14 252.958C1322.38 252.958 1337.91 250.053 1349.74 244.243V228.545C1334.85 234.656 1318.9 237.731 1302.81 237.59C1281.75 237.59 1265.35 230.506 1253.62 216.339C1241.89 202.171 1236.04 182.56 1236.06 157.505C1236.06 131.113 1241.91 110.887 1253.62 96.8297C1265.33 82.772 1282.58 75.7431 1305.36 75.7431" fill="black"/>
<path d="M1463.17 237.808C1441.41 237.808 1424.71 231.09 1413.05 217.656C1401.39 204.221 1395.45 184.757 1395.21 159.262H1528.9V145.709C1528.9 119.536 1522.59 98.8251 1509.96 83.576C1497.33 68.327 1480.09 60.6292 1458.22 60.4825C1433.5 60.4825 1413.87 69.4175 1399.36 87.2875C1384.84 105.157 1377.51 128.865 1377.37 158.41C1377.37 188.432 1384.93 211.69 1400.07 228.185C1413.09 242.518 1430.5 250.656 1452.31 252.598L1467.24 237.67C1465.89 237.67 1464.49 237.67 1463.11 237.67L1463.17 237.808ZM1415.19 93.2808C1426.01 81.4958 1440.35 75.6033 1458.22 75.6033C1474.72 75.6033 1487.64 81.6608 1496.98 93.7757C1506.33 105.891 1511 122.716 1510.98 144.251H1396.25C1398.09 122.038 1404.4 105.048 1415.19 93.2808Z" fill="black"/>
<path d="M735.033 237.808C713.278 237.808 696.572 231.09 684.915 217.656C673.258 204.221 667.311 184.757 667.073 159.262H800.767V145.709C800.767 119.536 794.453 98.8251 781.825 83.576C769.197 68.327 751.95 60.6292 730.085 60.4825C705.36 60.4825 685.721 69.3809 671.169 87.1775C656.616 104.974 649.331 128.682 649.312 158.3C649.312 188.248 656.855 211.525 671.939 228.13C684.933 242.463 702.345 250.601 724.174 252.544L739.102 237.615C737.728 237.615 736.353 237.615 734.978 237.615L735.033 237.808ZM687.059 93.2808C697.873 81.4958 712.215 75.6033 730.085 75.6033C746.58 75.6033 759.502 81.6608 768.849 93.7757C778.196 105.891 782.861 122.716 782.842 144.251H668.062C669.895 122.038 676.218 105.048 687.032 93.2808" fill="black"/>
</svg>
